<?xml version="1.0" standalone="no"?>
<!DOCTYPE svg PUBLIC "-//W3C//DTD SVG 20010904//EN"
 "http://www.w3.org/TR/2001/REC-SVG-20010904/DTD/svg10.dtd">
<svg version="1.0" xmlns="http://www.w3.org/2000/svg"
 width="800.000000pt" height="800.000000pt" viewBox="0 0 800.000000 800.000000"
 preserveAspectRatio="xMidYMid meet">
<metadata>
Created by potrace 1.14, written by Peter Selinger 2001-2017
</metadata>
<g transform="translate(0.000000,800.000000) scale(0.100000,-0.100000)"
fill="#000000" stroke="none">
<path d="M1098 5934 c-2 -1 -21 -4 -43 -7 -74 -10 -100 -18 -174 -54 -143 -68
-258 -217 -292 -378 -10 -47 -13 -368 -14 -1480 0 -781 2 -1438 6 -1460 4 -22
9 -53 12 -70 12 -74 74 -188 139 -256 66 -68 168 -127 253 -145 90 -19 229
-27 475 -26 382 1 463 12 570 77 78 48 150 122 224 234 35 53 133 202 218 331
85 129 220 334 300 455 296 449 1027 1559 1170 1778 411 629 403 618 478 658
44 23 49 24 370 25 357 1 407 -4 470 -54 40 -32 76 -98 85 -156 8 -59 9 -2786
0 -2826 -17 -81 -68 -145 -140 -177 -35 -15 -79 -18 -339 -20 -178 -2 -315 1
-337 7 -81 22 -128 68 -238 231 -369 548 -548 808 -575 837 -76 82 -172 82
-240 2 -65 -78 -52 -128 91 -342 199 -297 535 -791 566 -833 74 -99 188 -179
290 -204 88 -21 510 -33 699 -19 149 11 288 67 376 151 75 72 138 196 159 312
3 22 8 681 9 1465 2 1124 0 1439 -10 1490 -29 147 -98 261 -208 343 -45 34
-117 72 -153 82 -16 4 -34 9 -40 11 -55 16 -166 20 -472 19 -394 -3 -421 -6
-534 -66 -116 -62 -107 -49 -707 -959 -166 -250 -349 -529 -547 -830 -67 -102
-178 -270 -247 -375 -305 -464 -381 -580 -464 -706 -288 -441 -355 -539 -389
-567 -21 -17 -59 -35 -84 -41 -29 -7 -175 -10 -396 -8 -336 3 -352 4 -392 25
-63 33 -106 98 -121 182 -4 19 -7 658 -7 1420 0 1328 1 1387 19 1442 25 76 79
131 149 150 41 12 124 14 392 14 l340 -1 54 -28 c73 -37 118 -88 206 -228 14
-22 90 -138 104 -158 6 -9 52 -77 102 -151 174 -257 282 -415 301 -440 28 -35
82 -71 120 -79 95 -21 189 73 174 173 -8 52 -17 67 -211 354 -487 721 -489
723 -586 790 -49 33 -96 53 -169 73 -31 9 -160 13 -417 14 -205 1 -374 1 -375
-1z"/>
<path d="M7080 5002 c-37 -11 -119 -57 -165 -91 -63 -47 -206 -151 -235 -171
-12 -8 -65 -47 -118 -85 -54 -39 -107 -77 -119 -85 -160 -110 -480 -350 -508
-382 -82 -90 -101 -200 -52 -299 15 -30 37 -65 50 -79 19 -22 145 -121 204
-160 28 -19 381 -274 633 -457 246 -180 281 -198 380 -198 60 0 85 5 123 25
75 38 133 111 154 194 9 35 9 1488 0 1545 -10 68 -50 144 -97 182 -65 54 -182
82 -250 61z m23 -964 c-1 -332 -3 -622 -3 -645 l0 -42 -132 95 c-73 53 -249
180 -391 282 -142 103 -285 205 -318 228 l-59 41 31 24 c17 13 50 37 74 54 65
45 243 173 300 215 28 20 124 90 215 155 91 65 188 136 215 157 28 20 55 38
60 38 7 0 9 -206 8 -602z"/>
</g>
</svg>
